<?xml version="1.0" encoding="UTF-8"?>
<!DOCTYPE svg PUBLIC "-//W3C//DTD SVG 1.1//EN" "http://www.w3.org/Graphics/SVG/1.1/DTD/svg11.dtd">
<!-- Creator: CorelDRAW 2019 (64-Bit) -->
<svg xmlns="http://www.w3.org/2000/svg" xml:space="preserve" width="15mm" height="15mm" version="1.1" style="shape-rendering:geometricPrecision; text-rendering:geometricPrecision; image-rendering:optimizeQuality; fill-rule:evenodd; clip-rule:evenodd"
viewBox="0 0 1500000 1500000"
 xmlns:xlink="http://www.w3.org/1999/xlink"
 xmlns:xodm="http://www.corel.com/coreldraw/odm/2003"
 sodipodi:role="line"
 xmlns:dc="http://purl.org/dc/elements/1.1/"
 xmlns:cc="http://creativecommons.org/ns#"
 xmlns:rdf="http://www.w3.org/1999/02/22-rdf-syntax-ns#"
 xmlns:svg="http://www.w3.org/2000/svg"
 xmlns:sodipodi="http://sodipodi.sourceforge.net/DTD/sodipodi-0.dtd"
 xmlns:inkscape="http://www.inkscape.org/namespaces/inkscape"
 inkscape:version="0.92.2 5c3e80d, 2017-08-06"
 sodipodi:docname="skyrim_quest_markers_v0.1.svg">
 <defs>
  <style type="text/css">
   <![CDATA[
    .fil0 {fill:none}
    .fil2 {fill:black}
    .fil1 {fill:white}
   ]]>
  </style>
 </defs>
 <g id="Слой_x0020_1">
  <metadata id="CorelCorpID_0Corel-Layer"/>
  <sodipodi:namedview id="base" pagecolor="#ffffff" bordercolor="#666666" borderopacity="1.0" inkscape:pageopacity="0.0" inkscape:pageshadow="2" inkscape:zoom="0.70710678" inkscape:cx="1167.6418" inkscape:cy="498.19416" inkscape:document-units="mm" inkscape:current-layer="layer7" showgrid="false" inkscape:window-width="1920" inkscape:window-height="1020" inkscape:window-x="0" inkscape:window-y="0" inkscape:window-maximized="1" inkscape:snap-intersection-paths="true" inkscape:snap-smooth-nodes="false" inkscape:object-paths="false" inkscape:snap-object-midpoints="true" inkscape:object-nodes="true" inkscape:snap-center="true" showguides="false" units="in" inkscape:snap-midpoints="true" inkscape:snap-text-baseline="true" inkscape:measure-start="27.0871,895.384" inkscape:measure-end="27.0871,7.38431"/>
  <sodipodi:namedview id="base" pagecolor="#ffffff" bordercolor="#666666" borderopacity="1.0" inkscape:pageopacity="0.0" inkscape:pageshadow="2" inkscape:zoom="0.70710678" inkscape:cx="1167.6418" inkscape:cy="498.19416" inkscape:document-units="mm" inkscape:current-layer="layer7" showgrid="false" inkscape:window-width="1920" inkscape:window-height="1020" inkscape:window-x="0" inkscape:window-y="0" inkscape:window-maximized="1" inkscape:snap-intersection-paths="true" inkscape:snap-smooth-nodes="false" inkscape:object-paths="false" inkscape:snap-object-midpoints="true" inkscape:object-nodes="true" inkscape:snap-center="true" showguides="false" units="in" inkscape:snap-midpoints="true" inkscape:snap-text-baseline="true" inkscape:measure-start="27.0871,895.384" inkscape:measure-end="27.0871,7.38431"/>
  <g id="_2205491726192">
   <rect class="fil0" x="-26117" y="26102" width="1500000" height="1500000"/>
   <g>
    <path class="fil1" d="M249760 1463930l0 -193330 118700 -9450 91110 -851070 -75860 -2750 -90630 -189470 266520 -7710c28540,-74490 80320,-129030 164840,-129030 84530,0 136310,53440 164850,127930l267880 4130 -87590 196910 -80790 -3870 89980 862090 115390 90 4970 196080 -949370 -550z"/>
    <path class="fil2" d="M281060 1499210l-65480 0 0 -65480 0 -133480 0 -65480 65480 0 57150 0 -70 -80 83390 -789880 -62070 0 -98460 -198950 -32410 -65480 310060 0c28540,-74490 100720,-127370 185240,-127370 84530,0 156700,52880 185240,127370l310060 0 -32400 65480 -98470 198950 -62060 0 83380 789880 -60 80 57140 0 65480 0 0 65480 0 133480 0 65480 -65480 0 -885660 0zm885660 -65480l0 -133520 -116010 -70 -90300 -855330 -6910 -65480 65840 0 28330 0 66060 -133470 -246970 0 -5370 0 -300 0c-6350,-70190 -65350,-125180 -137200,-125180 -71840,0 -130840,54990 -137200,125180l-300 0 -5360 0 -246970 0 66050 133470 28330 0 65840 0 -6910 65480 -90290 855330 -116020 70 0 133520 885660 0zm-442830 -813010c75500,137420 121840,292370 109310,483540l0 194760 -218620 0 0 -194760c-12520,-191170 33810,-346120 109310,-483540z"/>
   </g>
  </g>
 </g>
</svg>
