<?xml version="1.0" encoding="UTF-8"?>
<!DOCTYPE svg PUBLIC "-//W3C//DTD SVG 1.1//EN" "http://www.w3.org/Graphics/SVG/1.1/DTD/svg11.dtd">
<!-- Creator: CorelDRAW 2019 (64-Bit) -->
<svg xmlns="http://www.w3.org/2000/svg" xml:space="preserve" width="15mm" height="15mm" version="1.1" style="shape-rendering:geometricPrecision; text-rendering:geometricPrecision; image-rendering:optimizeQuality; fill-rule:evenodd; clip-rule:evenodd"
viewBox="0 0 1500 1500"
 xmlns:xlink="http://www.w3.org/1999/xlink"
 xmlns:xodm="http://www.corel.com/coreldraw/odm/2003"
 sodipodi:role="line"
 xmlns:dc="http://purl.org/dc/elements/1.1/"
 xmlns:cc="http://creativecommons.org/ns#"
 xmlns:rdf="http://www.w3.org/1999/02/22-rdf-syntax-ns#"
 xmlns:svg="http://www.w3.org/2000/svg"
 xmlns:sodipodi="http://sodipodi.sourceforge.net/DTD/sodipodi-0.dtd"
 xmlns:inkscape="http://www.inkscape.org/namespaces/inkscape"
 inkscape:version="0.92.2 5c3e80d, 2017-08-06"
 sodipodi:docname="skyrim_quest_markers_v0.1.svg">
 <defs>
  <style type="text/css">
   <![CDATA[
    .fil2 {fill:none}
    .fil0 {fill:black}
    .fil1 {fill:white}
   ]]>
  </style>
 </defs>
 <g id="Слой_x0020_1">
  <metadata id="CorelCorpID_0Corel-Layer"/>
  <sodipodi:namedview id="base" pagecolor="#ffffff" bordercolor="#666666" borderopacity="1.0" inkscape:pageopacity="0.0" inkscape:pageshadow="2" inkscape:zoom="0.70710678" inkscape:cx="1167.6418" inkscape:cy="498.19416" inkscape:document-units="mm" inkscape:current-layer="layer7" showgrid="false" inkscape:window-width="1920" inkscape:window-height="1020" inkscape:window-x="0" inkscape:window-y="0" inkscape:window-maximized="1" inkscape:snap-intersection-paths="true" inkscape:snap-smooth-nodes="false" inkscape:object-paths="false" inkscape:snap-object-midpoints="true" inkscape:object-nodes="true" inkscape:snap-center="true" showguides="false" units="in" inkscape:snap-midpoints="true" inkscape:snap-text-baseline="true" inkscape:measure-start="27.0871,895.384" inkscape:measure-end="27.0871,7.38431"/>
  <sodipodi:namedview id="base" pagecolor="#ffffff" bordercolor="#666666" borderopacity="1.0" inkscape:pageopacity="0.0" inkscape:pageshadow="2" inkscape:zoom="0.70710678" inkscape:cx="1167.6418" inkscape:cy="498.19416" inkscape:document-units="mm" inkscape:current-layer="layer7" showgrid="false" inkscape:window-width="1920" inkscape:window-height="1020" inkscape:window-x="0" inkscape:window-y="0" inkscape:window-maximized="1" inkscape:snap-intersection-paths="true" inkscape:snap-smooth-nodes="false" inkscape:object-paths="false" inkscape:snap-object-midpoints="true" inkscape:object-nodes="true" inkscape:snap-center="true" showguides="false" units="in" inkscape:snap-midpoints="true" inkscape:snap-text-baseline="true" inkscape:measure-start="27.0871,895.384" inkscape:measure-end="27.0871,7.38431"/>
  <g id="_2937196773136">
   <g>
    <path class="fil0" d="M734.64 1459.45l-760.75 -183.2c6,-417.93 202.92,-746.34 653.88,-962.44l96.12 -221.04 96.12 221.04c450.96,216.1 647.88,544.51 653.88,962.44l-739.25 183.2z"/>
    <path class="fil1" d="M723.89 1015.92c-77.78,100.19 -128.38,215.48 -139.08,350.08l-464.17 -113.39c93.49,-371.17 286.31,-581.23 567.88,-647.36l-0.6 -139.84c-315.52,119.45 -534.95,356.33 -602.75,778.54l-48.35 -11.81c23.6,-336.91 175.33,-639.47 644.07,-857.06l48.38 -133.75 37.62 133.75c468.74,217.59 620.47,520.15 644.07,857.06l-48.35 11.81c-67.8,-422.21 -287.23,-659.09 -602.75,-778.54l-0.6 139.84c281.57,66.13 474.39,276.19 567.88,647.36l-458.79 112.08c-10.71,-134.6 -66.68,-248.58 -144.46,-348.77zm-346.41 -32.12l149.66 0 -73.54 -107.94 -76.12 107.94zm692.82 0l-149.66 0 73.54 -107.94 76.12 107.94z"/>
   </g>
   <rect class="fil2" x="-26.12" y="26.1" width="1500" height="1500"/>
  </g>
 </g>
</svg>
