<?xml version="1.0" encoding="UTF-8"?>
<!DOCTYPE svg PUBLIC "-//W3C//DTD SVG 1.1//EN" "http://www.w3.org/Graphics/SVG/1.1/DTD/svg11.dtd">
<!-- Creator: CorelDRAW 2019 (64-Bit) -->
<svg xmlns="http://www.w3.org/2000/svg" xml:space="preserve" width="15mm" height="15mm" version="1.1" style="shape-rendering:geometricPrecision; text-rendering:geometricPrecision; image-rendering:optimizeQuality; fill-rule:evenodd; clip-rule:evenodd"
viewBox="0 0 1500000 1500000"
 xmlns:xlink="http://www.w3.org/1999/xlink"
 xmlns:xodm="http://www.corel.com/coreldraw/odm/2003"
 sodipodi:role="line"
 xmlns:dc="http://purl.org/dc/elements/1.1/"
 xmlns:cc="http://creativecommons.org/ns#"
 xmlns:rdf="http://www.w3.org/1999/02/22-rdf-syntax-ns#"
 xmlns:svg="http://www.w3.org/2000/svg"
 xmlns:sodipodi="http://sodipodi.sourceforge.net/DTD/sodipodi-0.dtd"
 xmlns:inkscape="http://www.inkscape.org/namespaces/inkscape"
 inkscape:version="0.92.2 5c3e80d, 2017-08-06"
 sodipodi:docname="skyrim_quest_markers_v0.1.svg">
 <defs>
  <style type="text/css">
   <![CDATA[
    .fil0 {fill:none}
    .fil2 {fill:black}
    .fil1 {fill:white}
   ]]>
  </style>
 </defs>
 <g id="Слой_x0020_1">
  <metadata id="CorelCorpID_0Corel-Layer"/>
  <sodipodi:namedview id="base" pagecolor="#ffffff" bordercolor="#666666" borderopacity="1.0" inkscape:pageopacity="0.0" inkscape:pageshadow="2" inkscape:zoom="0.70710678" inkscape:cx="1167.6418" inkscape:cy="498.19416" inkscape:document-units="mm" inkscape:current-layer="layer7" showgrid="false" inkscape:window-width="1920" inkscape:window-height="1020" inkscape:window-x="0" inkscape:window-y="0" inkscape:window-maximized="1" inkscape:snap-intersection-paths="true" inkscape:snap-smooth-nodes="false" inkscape:object-paths="false" inkscape:snap-object-midpoints="true" inkscape:object-nodes="true" inkscape:snap-center="true" showguides="false" units="in" inkscape:snap-midpoints="true" inkscape:snap-text-baseline="true" inkscape:measure-start="27.0871,895.384" inkscape:measure-end="27.0871,7.38431"/>
  <sodipodi:namedview id="base" pagecolor="#ffffff" bordercolor="#666666" borderopacity="1.0" inkscape:pageopacity="0.0" inkscape:pageshadow="2" inkscape:zoom="0.70710678" inkscape:cx="1167.6418" inkscape:cy="498.19416" inkscape:document-units="mm" inkscape:current-layer="layer7" showgrid="false" inkscape:window-width="1920" inkscape:window-height="1020" inkscape:window-x="0" inkscape:window-y="0" inkscape:window-maximized="1" inkscape:snap-intersection-paths="true" inkscape:snap-smooth-nodes="false" inkscape:object-paths="false" inkscape:snap-object-midpoints="true" inkscape:object-nodes="true" inkscape:snap-center="true" showguides="false" units="in" inkscape:snap-midpoints="true" inkscape:snap-text-baseline="true" inkscape:measure-start="27.0871,895.384" inkscape:measure-end="27.0871,7.38431"/>
  <g id="_2205503973328">
   <rect class="fil0" x="-26117" y="26102" width="1500000" height="1500000"/>
   <g>
    <polygon class="fil1" points="579280,1328970 456120,1470200 191700,1231210 281790,823910 460590,822560 464850,542460 406770,491770 637180,217480 593900,166580 672700,81480 722830,132060 776150,81480 852830,166050 811140,216420 1037820,489110 981600,540060 988790,820970 1166530,822840 1257130,1230140 989790,1468080 866920,1329510 "/>
    <path class="fil2" d="M723890 1346480l-136090 2200 -127670 152430 -296660 -263510 99680 -435530 175590 2900 540 -256640 -68210 -54960 240530 -275360 -50210 -51430 110780 -115470 51720 53770 51730 -53770 110780 115470 -50210 51430 240530 275360 -68210 54960 540 256640 175590 -2900 99680 435530 -296660 263510 -127670 -152430 -136100 -2200zm0 -305160l-63170 0 0 267070 -92660 -310 -112870 132280 -237200 -213870 83870 -382280 91370 1020 250 124400 32810 0 360 -124220 58450 830 570 -257560 72300 310 2430 -95180 -58590 50040 -64100 -56670 231800 -267930 -50310 -51860 52900 -56240 51790 56610 51800 -56610 52890 56240 -50310 51860 231810 267930 -64110 56670 -58590 -50040 2430 95180 72310 -310 560 257560 58460 -830 360 124220 32810 0 250 -124400 91370 -1020 83860 382280 -237190 213870 -112870 -132280 -92670 310 0 -267070 -63170 0zm-150310 -387520l64950 0 0 62710 -64950 0 0 -62710zm300630 0l-64950 0 0 62710 64950 0 0 -62710z"/>
   </g>
  </g>
 </g>
</svg>
