<?xml version="1.0" encoding="UTF-8"?>
<!DOCTYPE svg PUBLIC "-//W3C//DTD SVG 1.1//EN" "http://www.w3.org/Graphics/SVG/1.1/DTD/svg11.dtd">
<!-- Creator: CorelDRAW 2019 (64-Bit) -->
<svg xmlns="http://www.w3.org/2000/svg" xml:space="preserve" width="15mm" height="15mm" version="1.1" style="shape-rendering:geometricPrecision; text-rendering:geometricPrecision; image-rendering:optimizeQuality; fill-rule:evenodd; clip-rule:evenodd"
viewBox="0 0 1500 1500"
 xmlns:xlink="http://www.w3.org/1999/xlink"
 xmlns:xodm="http://www.corel.com/coreldraw/odm/2003"
 sodipodi:role="line"
 xmlns:dc="http://purl.org/dc/elements/1.1/"
 xmlns:cc="http://creativecommons.org/ns#"
 xmlns:rdf="http://www.w3.org/1999/02/22-rdf-syntax-ns#"
 xmlns:svg="http://www.w3.org/2000/svg"
 xmlns:sodipodi="http://sodipodi.sourceforge.net/DTD/sodipodi-0.dtd"
 xmlns:inkscape="http://www.inkscape.org/namespaces/inkscape"
 inkscape:version="0.92.2 5c3e80d, 2017-08-06"
 sodipodi:docname="skyrim_quest_markers_v0.1.svg">
 <defs>
  <style type="text/css">
   <![CDATA[
    .fil2 {fill:none}
    .fil0 {fill:black}
    .fil1 {fill:white}
   ]]>
  </style>
 </defs>
 <g id="Слой_x0020_1">
  <metadata id="CorelCorpID_0Corel-Layer"/>
  <sodipodi:namedview id="base" pagecolor="#ffffff" bordercolor="#666666" borderopacity="1.0" inkscape:pageopacity="0.0" inkscape:pageshadow="2" inkscape:zoom="0.70710678" inkscape:cx="1167.6418" inkscape:cy="498.19416" inkscape:document-units="mm" inkscape:current-layer="layer7" showgrid="false" inkscape:window-width="1920" inkscape:window-height="1020" inkscape:window-x="0" inkscape:window-y="0" inkscape:window-maximized="1" inkscape:snap-intersection-paths="true" inkscape:snap-smooth-nodes="false" inkscape:object-paths="false" inkscape:snap-object-midpoints="true" inkscape:object-nodes="true" inkscape:snap-center="true" showguides="false" units="in" inkscape:snap-midpoints="true" inkscape:snap-text-baseline="true" inkscape:measure-start="27.0871,895.384" inkscape:measure-end="27.0871,7.38431"/>
  <sodipodi:namedview id="base" pagecolor="#ffffff" bordercolor="#666666" borderopacity="1.0" inkscape:pageopacity="0.0" inkscape:pageshadow="2" inkscape:zoom="0.70710678" inkscape:cx="1167.6418" inkscape:cy="498.19416" inkscape:document-units="mm" inkscape:current-layer="layer7" showgrid="false" inkscape:window-width="1920" inkscape:window-height="1020" inkscape:window-x="0" inkscape:window-y="0" inkscape:window-maximized="1" inkscape:snap-intersection-paths="true" inkscape:snap-smooth-nodes="false" inkscape:object-paths="false" inkscape:snap-object-midpoints="true" inkscape:object-nodes="true" inkscape:snap-center="true" showguides="false" units="in" inkscape:snap-midpoints="true" inkscape:snap-text-baseline="true" inkscape:measure-start="27.0871,895.384" inkscape:measure-end="27.0871,7.38431"/>
  <g id="_2936642044080">
   <g>
    <path class="fil0" d="M241.84 728.13l103.68 -5.8c47.18,-111.91 -38.39,-296.13 -0.7,-466.13 9.62,-29.55 36.78,-53.8 35.43,-166.03 199.44,-73.1 163.01,-88.73 379.63,-20.18 17.74,46.62 58.64,93.22 138.01,139.83l-2.72 87.12c133.99,20.29 141.1,51.91 185.09,130.21l124.42 -30.36c-63.91,470.38 53.54,356.42 -28.15,653.75l28.79 2.3 -22.47 325.74 -266.72 145.33 -210.04 2.21 -324.82 -185.17c21.25,-162.88 -8.26,-365.95 -138.26,-578.38 -5.67,-9.26 3.69,-24.48 -1.17,-34.44z"/>
    <path class="fil1" d="M331.3 782.97l79.32 -4.44c49.15,-135.42 -44.78,-355.79 -15.93,-485.86 7.35,-22.62 39.99,-65.47 38.95,-151.35 90.37,-22.74 118.21,-76.18 259.67,-29.66 13.57,35.67 65.61,89.11 126.34,124.78l-5.05 193.49c83.8,-137.91 216.43,-37.94 206.22,82.43 37.77,-24.97 74.24,-36.97 108.84,-30.34 -48.9,359.92 47.48,322.5 -32.8,604.54l32.1 3.54 -19.57 237.98 -231.34 137.28 -142.93 1.69 -294.77 -164.21c16.26,-124.62 -8.69,-330.98 -108.16,-493.52 -4.34,-7.09 2.82,-18.73 -0.89,-26.35zm232.78 -439.62l49.79 0 0 132.75 -49.79 0 0 -132.75zm395.91 888.97l-208.61 -1.19c8.6,-135.47 44.33,-242.64 125.64,-302.25l82.97 0 0 303.44z"/>
   </g>
   <rect class="fil2" x="-26.12" y="26.11" width="1500" height="1500"/>
  </g>
 </g>
</svg>
