<?xml version="1.0" encoding="UTF-8"?>
<!DOCTYPE svg PUBLIC "-//W3C//DTD SVG 1.1//EN" "http://www.w3.org/Graphics/SVG/1.1/DTD/svg11.dtd">
<!-- Creator: CorelDRAW 2019 (64-Bit) -->
<svg xmlns="http://www.w3.org/2000/svg" xml:space="preserve" width="15mm" height="15mm" version="1.1" style="shape-rendering:geometricPrecision; text-rendering:geometricPrecision; image-rendering:optimizeQuality; fill-rule:evenodd; clip-rule:evenodd"
viewBox="0 0 1500000 1500000"
 xmlns:xlink="http://www.w3.org/1999/xlink"
 xmlns:xodm="http://www.corel.com/coreldraw/odm/2003"
 sodipodi:role="line"
 xmlns:dc="http://purl.org/dc/elements/1.1/"
 xmlns:cc="http://creativecommons.org/ns#"
 xmlns:rdf="http://www.w3.org/1999/02/22-rdf-syntax-ns#"
 xmlns:svg="http://www.w3.org/2000/svg"
 xmlns:sodipodi="http://sodipodi.sourceforge.net/DTD/sodipodi-0.dtd"
 xmlns:inkscape="http://www.inkscape.org/namespaces/inkscape"
 inkscape:version="0.92.2 5c3e80d, 2017-08-06"
 sodipodi:docname="skyrim_quest_markers_v0.1.svg">
 <defs>
  <style type="text/css">
   <![CDATA[
    .fil0 {fill:none}
    .fil2 {fill:black}
    .fil1 {fill:white}
   ]]>
  </style>
 </defs>
 <g id="Слой_x0020_1">
  <metadata id="CorelCorpID_0Corel-Layer"/>
  <sodipodi:namedview id="base" pagecolor="#ffffff" bordercolor="#666666" borderopacity="1.0" inkscape:pageopacity="0.0" inkscape:pageshadow="2" inkscape:zoom="0.70710678" inkscape:cx="1167.6418" inkscape:cy="498.19416" inkscape:document-units="mm" inkscape:current-layer="layer7" showgrid="false" inkscape:window-width="1920" inkscape:window-height="1020" inkscape:window-x="0" inkscape:window-y="0" inkscape:window-maximized="1" inkscape:snap-intersection-paths="true" inkscape:snap-smooth-nodes="false" inkscape:object-paths="false" inkscape:snap-object-midpoints="true" inkscape:object-nodes="true" inkscape:snap-center="true" showguides="false" units="in" inkscape:snap-midpoints="true" inkscape:snap-text-baseline="true" inkscape:measure-start="27.0871,895.384" inkscape:measure-end="27.0871,7.38431"/>
  <sodipodi:namedview id="base" pagecolor="#ffffff" bordercolor="#666666" borderopacity="1.0" inkscape:pageopacity="0.0" inkscape:pageshadow="2" inkscape:zoom="0.70710678" inkscape:cx="1167.6418" inkscape:cy="498.19416" inkscape:document-units="mm" inkscape:current-layer="layer7" showgrid="false" inkscape:window-width="1920" inkscape:window-height="1020" inkscape:window-x="0" inkscape:window-y="0" inkscape:window-maximized="1" inkscape:snap-intersection-paths="true" inkscape:snap-smooth-nodes="false" inkscape:object-paths="false" inkscape:snap-object-midpoints="true" inkscape:object-nodes="true" inkscape:snap-center="true" showguides="false" units="in" inkscape:snap-midpoints="true" inkscape:snap-text-baseline="true" inkscape:measure-start="27.0871,895.384" inkscape:measure-end="27.0871,7.38431"/>
  <g id="_2205491732816">
   <rect class="fil0" x="-26117" y="26102" width="1500000" height="1500000"/>
   <g>
    <path class="fil1" d="M724960 139470c-18600,1580 -43150,-29050 -46210,-62260l-112820 11710 3280 76150 58010 58230 -387760 357810 47840 79510c-165450,65410 -120530,14050 -211080,146400l56570 9620 -51720 372920 341930 285890c39580,-190630 150040,-312170 297690,-318760 147650,6590 264030,128000 303610,318630l343480 -291090 -48520 -364410 61340 -7480c-50190,-105180 -51320,-89270 -216760,-154690l46070 -81860 -386690 -346890 59070 -66230 -160 -74560 -110450 -11950c-3050,33210 -28110,64890 -46720,63310z"/>
    <path class="fil2" d="M723890 116560c-18610,1580 -18090,-32240 -21150,-65450l-167720 16490 1690 108130 45210 48100 -382420 350880 45010 78680c-165450,65420 -133140,39920 -233810,196250l85850 -6360 -47450 352660 350910 305170 52230 -220c39590,-190630 124010,-309900 271650,-316490 147640,6590 232060,125860 271650,316490l52230 220 350910 -305170 -47450 -352660 85850 6360c-100670,-156330 -68360,-130830 -233810,-196250l45010 -78680 -382420 -350880 45210 -48100 1690 -108130 -167720 -16490c-3060,33210 -2540,67030 -21150,65450zm0 58640l-64550 -72940 -67430 5060 7880 43170 76000 79620 -400770 352130 64940 87750c-79930,30140 -196800,48350 -214230,116000l38760 3570 -51480 388080 300140 258180c53320,-216760 163420,-290060 310740,-303770 147320,13710 257420,87010 310740,303770l300140 -258180 -51480 -388080 38760 -3570c-17430,-67650 -134300,-85860 -214230,-116000l64940 -87750 -400770 -352130 76000 -79620 7880 -43170 -67430 -5060 -64550 72940zm-318900 487130l-43180 -84100 724160 0 -43180 84100c-220100,-39720 -417700,-39720 -637800,0zm-178430 118200l128430 0 0 120330c-42830,9170 -85640,19840 -128430,31960l0 -152290zm192070 0l177300 0 0 84910c-59150,4660 -118240,12340 -177300,22910l0 -107820zm243210 80970l0 -80970 124100 0 0 80970c-41460,-1680 -82640,-1680 -124100,0zm559380 -80970l-128430 0 0 120330c42830,9170 85640,19840 128430,31960l0 -152290zm-192070 0l-177300 0 0 84910c59150,4660 118240,12340 177300,22910l0 -107820z"/>
   </g>
  </g>
 </g>
</svg>
