<?xml version="1.0" encoding="UTF-8"?>
<!DOCTYPE svg PUBLIC "-//W3C//DTD SVG 1.1//EN" "http://www.w3.org/Graphics/SVG/1.1/DTD/svg11.dtd">
<!-- Creator: CorelDRAW 2019 (64-Bit) -->
<svg xmlns="http://www.w3.org/2000/svg" xml:space="preserve" width="15mm" height="15mm" version="1.1" style="shape-rendering:geometricPrecision; text-rendering:geometricPrecision; image-rendering:optimizeQuality; fill-rule:evenodd; clip-rule:evenodd"
viewBox="0 0 1500 1500"
 xmlns:xlink="http://www.w3.org/1999/xlink"
 xmlns:xodm="http://www.corel.com/coreldraw/odm/2003"
 sodipodi:role="line"
 xmlns:dc="http://purl.org/dc/elements/1.1/"
 xmlns:cc="http://creativecommons.org/ns#"
 xmlns:rdf="http://www.w3.org/1999/02/22-rdf-syntax-ns#"
 xmlns:svg="http://www.w3.org/2000/svg"
 xmlns:sodipodi="http://sodipodi.sourceforge.net/DTD/sodipodi-0.dtd"
 xmlns:inkscape="http://www.inkscape.org/namespaces/inkscape"
 inkscape:version="0.92.2 5c3e80d, 2017-08-06"
 sodipodi:docname="skyrim_quest_markers_v0.1.svg">
 <defs>
  <style type="text/css">
   <![CDATA[
    .fil2 {fill:none}
    .fil0 {fill:black}
    .fil1 {fill:white}
   ]]>
  </style>
 </defs>
 <g id="Слой_x0020_1">
  <metadata id="CorelCorpID_0Corel-Layer"/>
  <sodipodi:namedview id="base" pagecolor="#ffffff" bordercolor="#666666" borderopacity="1.0" inkscape:pageopacity="0.0" inkscape:pageshadow="2" inkscape:zoom="0.70710678" inkscape:cx="1167.6418" inkscape:cy="498.19416" inkscape:document-units="mm" inkscape:current-layer="layer7" showgrid="false" inkscape:window-width="1920" inkscape:window-height="1020" inkscape:window-x="0" inkscape:window-y="0" inkscape:window-maximized="1" inkscape:snap-intersection-paths="true" inkscape:snap-smooth-nodes="false" inkscape:object-paths="false" inkscape:snap-object-midpoints="true" inkscape:object-nodes="true" inkscape:snap-center="true" showguides="false" units="in" inkscape:snap-midpoints="true" inkscape:snap-text-baseline="true" inkscape:measure-start="27.0871,895.384" inkscape:measure-end="27.0871,7.38431"/>
  <sodipodi:namedview id="base" pagecolor="#ffffff" bordercolor="#666666" borderopacity="1.0" inkscape:pageopacity="0.0" inkscape:pageshadow="2" inkscape:zoom="0.70710678" inkscape:cx="1167.6418" inkscape:cy="498.19416" inkscape:document-units="mm" inkscape:current-layer="layer7" showgrid="false" inkscape:window-width="1920" inkscape:window-height="1020" inkscape:window-x="0" inkscape:window-y="0" inkscape:window-maximized="1" inkscape:snap-intersection-paths="true" inkscape:snap-smooth-nodes="false" inkscape:object-paths="false" inkscape:snap-object-midpoints="true" inkscape:object-nodes="true" inkscape:snap-center="true" showguides="false" units="in" inkscape:snap-midpoints="true" inkscape:snap-text-baseline="true" inkscape:measure-start="27.0871,895.384" inkscape:measure-end="27.0871,7.38431"/>
  <g id="_2937516641344">
   <g>
    <path class="fil0" d="M557.47 1042.21c34.51,96.16 138.99,153.17 134.79,231.92l0.5 251.98 -540.86 0 0 -373.65 42.3 -0.18c-30.59,-100.87 -53.79,-208.81 -53.79,-324.91 0,-442.52 249.68,-793.05 583.48,-801.26 333.8,8.21 583.48,358.74 583.48,801.26 0,116.1 -23.2,224.04 -53.79,324.91l42.3 0.18 0 373.65 -540.86 0 0.5 -251.98c-4.2,-78.75 100.28,-135.76 134.79,-231.92 24.86,-53.72 39.53,-119.93 39.53,-191.55 0,-179.54 -64.75,-326.08 -205.95,-325.1 -141.2,-0.98 -205.95,145.56 -205.95,325.1 0,71.62 14.67,137.83 39.53,191.55z"/>
    <g>
     <path class="fil1" d="M501.12 1090.46c25.94,67.06 81.4,118.8 123.94,168.63l0.03 39 0 149.07 -404.54 0 0 -220.66 67.19 0.01c-39.88,-116.1 -74.5,-243.17 -74.5,-383.09 0,-408.4 218.51,-731.9 510.65,-739.47 292.14,7.57 510.65,331.07 510.65,739.47 0,139.92 -34.62,266.99 -74.5,383.09l67.19 -0.01 0 220.66 -404.54 0 0 -149.07 0.03 -39c42.54,-49.83 98,-101.57 123.94,-168.63l-445.54 0zm0 0c-33.27,-66.73 -52.91,-148.98 -52.91,-237.95 0,-223.04 86.67,-405.08 275.68,-403.86 189.01,-1.22 275.68,180.82 275.68,403.86 0,88.97 -19.64,171.22 -52.91,237.95l-445.54 0zm-144.71 -124.21c37.98,0 68.77,35.51 68.77,79.32 0,43.8 -30.79,79.31 -68.77,79.31 -37.98,0 -68.77,-35.51 -68.77,-79.31 0,-43.81 30.79,-79.32 68.77,-79.32zm734.96 0c-37.98,0 -68.77,35.51 -68.77,79.32 0,43.8 30.79,79.31 68.77,79.31 37.98,0 68.77,-35.51 68.77,-79.31 0,-43.81 -30.79,-79.32 -68.77,-79.32zm-42.05 -501.99c-37.98,0 -68.77,35.51 -68.77,79.31 0,43.81 30.79,79.32 68.77,79.32 37.98,0 68.77,-35.51 68.77,-79.32 0,-43.8 -30.79,-79.31 -68.77,-79.31zm-325.43 -69.39c-47.32,0 -86.51,-44.42 -86.51,-99.23 0,-54.81 39.19,-99.23 86.51,-99.23 47.32,0 86.51,44.42 86.51,99.23 0,54.81 -39.19,99.23 -86.51,99.23zm-325.43 69.39c37.98,0 68.77,35.51 68.77,79.31 0,43.81 -30.79,79.32 -68.77,79.32 -37.98,0 -68.77,-35.51 -68.77,-79.32 0,-43.8 30.79,-79.31 68.77,-79.31z"/>
    </g>
   </g>
   <rect class="fil2" x="-26.12" y="26.1" width="1500" height="1500"/>
  </g>
 </g>
</svg>
