<?xml version="1.0" encoding="UTF-8"?>
<!DOCTYPE svg PUBLIC "-//W3C//DTD SVG 1.1//EN" "http://www.w3.org/Graphics/SVG/1.1/DTD/svg11.dtd">
<!-- Creator: CorelDRAW 2019 (64-Bit) -->
<svg xmlns="http://www.w3.org/2000/svg" xml:space="preserve" width="15mm" height="15mm" version="1.1" style="shape-rendering:geometricPrecision; text-rendering:geometricPrecision; image-rendering:optimizeQuality; fill-rule:evenodd; clip-rule:evenodd"
viewBox="0 0 1500000 1500000"
 xmlns:xlink="http://www.w3.org/1999/xlink"
 xmlns:xodm="http://www.corel.com/coreldraw/odm/2003"
 sodipodi:role="line"
 xmlns:dc="http://purl.org/dc/elements/1.1/"
 xmlns:cc="http://creativecommons.org/ns#"
 xmlns:rdf="http://www.w3.org/1999/02/22-rdf-syntax-ns#"
 xmlns:svg="http://www.w3.org/2000/svg"
 xmlns:sodipodi="http://sodipodi.sourceforge.net/DTD/sodipodi-0.dtd"
 xmlns:inkscape="http://www.inkscape.org/namespaces/inkscape"
 inkscape:version="0.92.2 5c3e80d, 2017-08-06"
 sodipodi:docname="skyrim_quest_markers_v0.1.svg">
 <defs>
  <style type="text/css">
   <![CDATA[
    .fil0 {fill:none}
    .fil2 {fill:black}
    .fil1 {fill:white}
   ]]>
  </style>
 </defs>
 <g id="Слой_x0020_1">
  <metadata id="CorelCorpID_0Corel-Layer"/>
  <sodipodi:namedview id="base" pagecolor="#ffffff" bordercolor="#666666" borderopacity="1.0" inkscape:pageopacity="0.0" inkscape:pageshadow="2" inkscape:zoom="0.70710678" inkscape:cx="1167.6418" inkscape:cy="498.19416" inkscape:document-units="mm" inkscape:current-layer="layer7" showgrid="false" inkscape:window-width="1920" inkscape:window-height="1020" inkscape:window-x="0" inkscape:window-y="0" inkscape:window-maximized="1" inkscape:snap-intersection-paths="true" inkscape:snap-smooth-nodes="false" inkscape:object-paths="false" inkscape:snap-object-midpoints="true" inkscape:object-nodes="true" inkscape:snap-center="true" showguides="false" units="in" inkscape:snap-midpoints="true" inkscape:snap-text-baseline="true" inkscape:measure-start="27.0871,895.384" inkscape:measure-end="27.0871,7.38431"/>
  <sodipodi:namedview id="base" pagecolor="#ffffff" bordercolor="#666666" borderopacity="1.0" inkscape:pageopacity="0.0" inkscape:pageshadow="2" inkscape:zoom="0.70710678" inkscape:cx="1167.6418" inkscape:cy="498.19416" inkscape:document-units="mm" inkscape:current-layer="layer7" showgrid="false" inkscape:window-width="1920" inkscape:window-height="1020" inkscape:window-x="0" inkscape:window-y="0" inkscape:window-maximized="1" inkscape:snap-intersection-paths="true" inkscape:snap-smooth-nodes="false" inkscape:object-paths="false" inkscape:snap-object-midpoints="true" inkscape:object-nodes="true" inkscape:snap-center="true" showguides="false" units="in" inkscape:snap-midpoints="true" inkscape:snap-text-baseline="true" inkscape:measure-start="27.0871,895.384" inkscape:measure-end="27.0871,7.38431"/>
  <g id="_2207214402880">
   <rect class="fil0" x="-26117" y="26102" width="1500000" height="1500000"/>
   <g>
    <path class="fil1" d="M723890 1310150l-192380 -78050 50120 -417070 -211860 -55520c-33920,139240 -62980,261060 -17500,447780l-324250 -181120c49030,-536810 359500,-796500 695870,-796500 336370,0 646840,261840 695870,798650l-339360 194060c45490,-186720 28290,-316090 -5630,-455340l-210790 53390 51220 414370 -191310 75350z"/>
    <path class="fil2" d="M420230 613090c57240,25960 141350,55340 204650,66610 4180,-79290 2790,-153370 -7570,-221460 -78670,38420 -145640,88350 -197080,154850zm303660 668200l-164830 -66460c20130,-149250 43010,-289760 56430,-418790l-261870 -66290c-44500,109770 -59750,251630 -37490,436410l-256290 -148300c85570,-457670 328660,-751300 664050,-759380 335390,8080 578480,301710 664050,759380l-256290 148300c22260,-184780 7010,-326640 -37490,-436410l-261870 66290c13420,129030 36300,269540 56430,418790l-164830 66460zm0 64460l-220970 -94230 45290 -418140 -154700 -37210c-33920,139240 -28470,302050 17020,488770l-411640 -238280c49040,-536810 388630,-840190 725000,-840190 336370,0 675960,303380 725000,840190l-411640 238280c45490,-186720 50940,-349530 17020,-488770l-154700 37210 45290 418140 -220970 94230zm303660 -732660c-57240,25960 -141350,55340 -204650,66610 -4180,-79290 -2790,-153370 7570,-221460 78670,38420 145640,88350 197080,154850z"/>
   </g>
  </g>
 </g>
</svg>
