<?xml version="1.0" encoding="UTF-8"?>
<!DOCTYPE svg PUBLIC "-//W3C//DTD SVG 1.1//EN" "http://www.w3.org/Graphics/SVG/1.1/DTD/svg11.dtd">
<!-- Creator: CorelDRAW 2019 (64-Bit) -->
<svg xmlns="http://www.w3.org/2000/svg" xml:space="preserve" width="15mm" height="15mm" version="1.1" style="shape-rendering:geometricPrecision; text-rendering:geometricPrecision; image-rendering:optimizeQuality; fill-rule:evenodd; clip-rule:evenodd"
viewBox="0 0 1500000 1500000"
 xmlns:xlink="http://www.w3.org/1999/xlink"
 xmlns:xodm="http://www.corel.com/coreldraw/odm/2003"
 sodipodi:role="line"
 xmlns:dc="http://purl.org/dc/elements/1.1/"
 xmlns:cc="http://creativecommons.org/ns#"
 xmlns:rdf="http://www.w3.org/1999/02/22-rdf-syntax-ns#"
 xmlns:svg="http://www.w3.org/2000/svg"
 xmlns:sodipodi="http://sodipodi.sourceforge.net/DTD/sodipodi-0.dtd"
 xmlns:inkscape="http://www.inkscape.org/namespaces/inkscape"
 inkscape:version="0.92.2 5c3e80d, 2017-08-06"
 sodipodi:docname="skyrim_quest_markers_v0.1.svg">
 <defs>
  <style type="text/css">
   <![CDATA[
    .fil0 {fill:none}
    .fil2 {fill:black}
    .fil1 {fill:white}
   ]]>
  </style>
 </defs>
 <g id="Слой_x0020_1">
  <metadata id="CorelCorpID_0Corel-Layer"/>
  <sodipodi:namedview id="base" pagecolor="#ffffff" bordercolor="#666666" borderopacity="1.0" inkscape:pageopacity="0.0" inkscape:pageshadow="2" inkscape:zoom="0.70710678" inkscape:cx="1167.6418" inkscape:cy="498.19416" inkscape:document-units="mm" inkscape:current-layer="layer7" showgrid="false" inkscape:window-width="1920" inkscape:window-height="1020" inkscape:window-x="0" inkscape:window-y="0" inkscape:window-maximized="1" inkscape:snap-intersection-paths="true" inkscape:snap-smooth-nodes="false" inkscape:object-paths="false" inkscape:snap-object-midpoints="true" inkscape:object-nodes="true" inkscape:snap-center="true" showguides="false" units="in" inkscape:snap-midpoints="true" inkscape:snap-text-baseline="true" inkscape:measure-start="27.0871,895.384" inkscape:measure-end="27.0871,7.38431"/>
  <sodipodi:namedview id="base" pagecolor="#ffffff" bordercolor="#666666" borderopacity="1.0" inkscape:pageopacity="0.0" inkscape:pageshadow="2" inkscape:zoom="0.70710678" inkscape:cx="1167.6418" inkscape:cy="498.19416" inkscape:document-units="mm" inkscape:current-layer="layer7" showgrid="false" inkscape:window-width="1920" inkscape:window-height="1020" inkscape:window-x="0" inkscape:window-y="0" inkscape:window-maximized="1" inkscape:snap-intersection-paths="true" inkscape:snap-smooth-nodes="false" inkscape:object-paths="false" inkscape:snap-object-midpoints="true" inkscape:object-nodes="true" inkscape:snap-center="true" showguides="false" units="in" inkscape:snap-midpoints="true" inkscape:snap-text-baseline="true" inkscape:measure-start="27.0871,895.384" inkscape:measure-end="27.0871,7.38431"/>
  <g id="_2207210863760">
   <rect class="fil0" x="-26117" y="26102" width="1500000" height="1500000"/>
   <g>
    <path class="fil1" d="M724950 576180c28150,-25950 51410,-56120 68760,-94190l151510 -371200 123900 112590 -73540 183480c66970,310 98460,250 156360,26310l-82530 80370c-41690,106320 -67410,239180 -69720,375780l-101180 80940 -38090 123540 28930 213040 42600 38090c-46450,11120 -12860,6340 -51740,28050l-80260 12850 -78200 67320 -64330 -62520 -74930 -10730c-38880,-21710 -21270,-24910 -67720,-36030l44180 -37560 27890 -209840 -33840 -118760 -107040 -94780c-2300,-136600 -26970,-260950 -68650,-367260l-82530 -88360c57890,-26060 85120,-24400 152090,-24710l-66070 -178150 119630 -110470 155770 368010c17350,38070 40600,68240 68750,94190z"/>
    <path class="fil2" d="M723890 520760c28150,-25950 51410,-56120 68750,-94180l138720 -375470 181450 160550 -72470 164290c66970,320 129380,13580 187270,39640l-134760 119270c-41680,106320 -59940,230640 -62260,367250l-108640 80400 -33290 117160 36400 201310 93740 50890c-46450,11120 -89050,27630 -127930,49350l-78130 12860 -88850 87030 -88850 -87030 -78130 -12860c-38880,-21720 -81480,-38230 -127930,-49350l93740 -50890 36400 -201310 -33290 -117160 -108640 -80400c-2320,-136610 -20580,-260930 -62260,-367250l-134760 -119270c57890,-26060 120300,-39320 187270,-39640l-72470 -164290 181450 -160550 138720 375470c17340,38060 40600,68230 68750,94180zm0 105820c96900,-109590 163750,-286950 230340,-466260l77380 71740c-37350,108210 -86930,220430 -140930,318040l23100 91110c24280,-88100 53980,-165340 102500,-204940 36570,-2460 64310,150 79700,9820l-50370 49330c-51440,121350 -75470,248180 -66360,381650 -46660,21330 -85620,49800 -111080,90810 -72900,155970 -4490,252940 -5300,379590 -106530,10960 -76510,-4410 -138980,62760 -62470,-67170 -32450,-51800 -138980,-62760 -810,-126650 67600,-223620 -5300,-379590 -25460,-41010 -64420,-69480 -111080,-90810 9110,-133470 -14920,-260300 -66360,-381650l-50370 -49330c15390,-9670 43130,-12280 79700,-9820 48520,39600 78220,116840 102500,204940l23100 -91110c-54000,-97610 -103580,-209830 -140930,-318040l77380 -71740c66590,179310 133440,356670 230340,466260zm79670 214390c-7220,-550 -13920,-1750 -19500,-3240 36590,-7220 68560,-20200 93030,-42550 -2690,13810 -8870,23810 -16970,30890 12780,47980 -55520,63650 -56560,14900zm-159340 0c7220,-550 13920,-1750 19500,-3240 -36590,-7220 -68560,-20200 -93030,-42550 2690,13810 8870,23810 16970,30890 -12780,47980 55520,63650 56560,14900z"/>
   </g>
  </g>
 </g>
</svg>
