<?xml version="1.0" encoding="UTF-8"?>
<!DOCTYPE svg PUBLIC "-//W3C//DTD SVG 1.1//EN" "http://www.w3.org/Graphics/SVG/1.1/DTD/svg11.dtd">
<!-- Creator: CorelDRAW 2019 (64-Bit) -->
<svg xmlns="http://www.w3.org/2000/svg" xml:space="preserve" width="15mm" height="15mm" version="1.1" style="shape-rendering:geometricPrecision; text-rendering:geometricPrecision; image-rendering:optimizeQuality; fill-rule:evenodd; clip-rule:evenodd"
viewBox="0 0 1500 1500"
 xmlns:xlink="http://www.w3.org/1999/xlink"
 xmlns:xodm="http://www.corel.com/coreldraw/odm/2003"
 sodipodi:role="line"
 xmlns:dc="http://purl.org/dc/elements/1.1/"
 xmlns:cc="http://creativecommons.org/ns#"
 xmlns:rdf="http://www.w3.org/1999/02/22-rdf-syntax-ns#"
 xmlns:svg="http://www.w3.org/2000/svg"
 xmlns:sodipodi="http://sodipodi.sourceforge.net/DTD/sodipodi-0.dtd"
 xmlns:inkscape="http://www.inkscape.org/namespaces/inkscape"
 inkscape:version="0.92.2 5c3e80d, 2017-08-06"
 sodipodi:docname="skyrim_quest_markers_v0.1.svg">
 <defs>
  <style type="text/css">
   <![CDATA[
    .fil2 {fill:none}
    .fil0 {fill:black}
    .fil1 {fill:white}
   ]]>
  </style>
 </defs>
 <g id="Слой_x0020_1">
  <metadata id="CorelCorpID_0Corel-Layer"/>
  <sodipodi:namedview id="base" pagecolor="#ffffff" bordercolor="#666666" borderopacity="1.0" inkscape:pageopacity="0.0" inkscape:pageshadow="2" inkscape:zoom="0.70710678" inkscape:cx="1167.6418" inkscape:cy="498.19416" inkscape:document-units="mm" inkscape:current-layer="layer7" showgrid="false" inkscape:window-width="1920" inkscape:window-height="1020" inkscape:window-x="0" inkscape:window-y="0" inkscape:window-maximized="1" inkscape:snap-intersection-paths="true" inkscape:snap-smooth-nodes="false" inkscape:object-paths="false" inkscape:snap-object-midpoints="true" inkscape:object-nodes="true" inkscape:snap-center="true" showguides="false" units="in" inkscape:snap-midpoints="true" inkscape:snap-text-baseline="true" inkscape:measure-start="27.0871,895.384" inkscape:measure-end="27.0871,7.38431"/>
  <sodipodi:namedview id="base" pagecolor="#ffffff" bordercolor="#666666" borderopacity="1.0" inkscape:pageopacity="0.0" inkscape:pageshadow="2" inkscape:zoom="0.70710678" inkscape:cx="1167.6418" inkscape:cy="498.19416" inkscape:document-units="mm" inkscape:current-layer="layer7" showgrid="false" inkscape:window-width="1920" inkscape:window-height="1020" inkscape:window-x="0" inkscape:window-y="0" inkscape:window-maximized="1" inkscape:snap-intersection-paths="true" inkscape:snap-smooth-nodes="false" inkscape:object-paths="false" inkscape:snap-object-midpoints="true" inkscape:object-nodes="true" inkscape:snap-center="true" showguides="false" units="in" inkscape:snap-midpoints="true" inkscape:snap-text-baseline="true" inkscape:measure-start="27.0871,895.384" inkscape:measure-end="27.0871,7.38431"/>
  <g id="_2937516648672">
   <g>
    <path class="fil0" d="M723.89 1526.11l-196.54 -195.72 -34.01 91.13 -161.07 -2.71c13.32,-115.82 -28.97,-239.93 39.95,-347.47 -16.35,-109.97 -24.22,-270.72 31.04,-331.27 -88.19,-509.38 216.14,-314.63 235.15,-713.96l170.96 0c19.02,399.33 323.34,204.58 235.15,713.96 55.26,60.55 47.39,221.3 31.04,331.27 68.92,107.54 26.63,231.65 39.95,347.47l-161.07 2.71 -34.01 -91.13 -196.54 195.72z"/>
    <path class="fil1" d="M694.91 71.48c14.88,216.04 -168.36,261.61 -225.28,394.8 -16.26,27.77 -32.19,121.72 6.83,199.27 44.43,-151.29 127.33,-194.29 183.86,-213.52 -14.12,196.7 -202.84,261.22 -218.54,331.28 -6.11,71.19 -13.92,148.02 4.07,240.89 45.99,-134.35 79.52,-191.53 180.51,-240.29l3.78 99.76c-55.2,31.91 -201.19,209.78 -206.9,238.53 -16.89,85.09 -0.13,183.35 -9.93,259.49 41.33,-117.14 99.84,-209.35 190.06,-255.48l-2.99 175.79 123.51 109.92 123.51 -109.92 -2.99 -175.79c90.22,46.13 148.73,138.34 190.06,255.48 -9.79,-76.14 6.96,-174.4 -9.93,-259.49 -5.71,-28.75 -151.7,-206.62 -206.9,-238.53l3.78 -99.76c100.99,48.76 134.52,105.94 180.51,240.29 17.99,-92.87 10.18,-169.7 4.07,-240.89 -15.7,-70.06 -204.42,-134.58 -218.54,-331.28 56.54,19.23 139.43,62.23 183.86,213.52 39.02,-77.55 23.09,-171.5 6.83,-199.27 -56.92,-133.19 -240.16,-178.76 -225.28,-394.8l-57.96 0z"/>
   </g>
   <rect class="fil2" x="-26.12" y="26.1" width="1500" height="1500"/>
  </g>
 </g>
</svg>
