<?xml version="1.0" encoding="UTF-8"?>
<!DOCTYPE svg PUBLIC "-//W3C//DTD SVG 1.1//EN" "http://www.w3.org/Graphics/SVG/1.1/DTD/svg11.dtd">
<!-- Creator: CorelDRAW 2019 (64-Bit) -->
<svg xmlns="http://www.w3.org/2000/svg" xml:space="preserve" width="15mm" height="15mm" version="1.1" style="shape-rendering:geometricPrecision; text-rendering:geometricPrecision; image-rendering:optimizeQuality; fill-rule:evenodd; clip-rule:evenodd"
viewBox="0 0 1500 1500"
 xmlns:xlink="http://www.w3.org/1999/xlink"
 xmlns:xodm="http://www.corel.com/coreldraw/odm/2003"
 sodipodi:role="line"
 xmlns:dc="http://purl.org/dc/elements/1.1/"
 xmlns:cc="http://creativecommons.org/ns#"
 xmlns:rdf="http://www.w3.org/1999/02/22-rdf-syntax-ns#"
 xmlns:svg="http://www.w3.org/2000/svg"
 xmlns:sodipodi="http://sodipodi.sourceforge.net/DTD/sodipodi-0.dtd"
 xmlns:inkscape="http://www.inkscape.org/namespaces/inkscape"
 inkscape:version="0.92.2 5c3e80d, 2017-08-06"
 sodipodi:docname="skyrim_quest_markers_v0.1.svg">
 <defs>
  <style type="text/css">
   <![CDATA[
    .str0 {stroke:black;stroke-width:20;stroke-miterlimit:22.9256}
    .fil2 {fill:none}
    .fil0 {fill:black}
    .fil1 {fill:white}
   ]]>
  </style>
 </defs>
 <g id="Слой_x0020_1">
  <metadata id="CorelCorpID_0Corel-Layer"/>
  <sodipodi:namedview id="base" pagecolor="#ffffff" bordercolor="#666666" borderopacity="1.0" inkscape:pageopacity="0.0" inkscape:pageshadow="2" inkscape:zoom="0.70710678" inkscape:cx="1167.6418" inkscape:cy="498.19416" inkscape:document-units="mm" inkscape:current-layer="layer7" showgrid="false" inkscape:window-width="1920" inkscape:window-height="1020" inkscape:window-x="0" inkscape:window-y="0" inkscape:window-maximized="1" inkscape:snap-intersection-paths="true" inkscape:snap-smooth-nodes="false" inkscape:object-paths="false" inkscape:snap-object-midpoints="true" inkscape:object-nodes="true" inkscape:snap-center="true" showguides="false" units="in" inkscape:snap-midpoints="true" inkscape:snap-text-baseline="true" inkscape:measure-start="27.0871,895.384" inkscape:measure-end="27.0871,7.38431"/>
  <sodipodi:namedview id="base" pagecolor="#ffffff" bordercolor="#666666" borderopacity="1.0" inkscape:pageopacity="0.0" inkscape:pageshadow="2" inkscape:zoom="0.70710678" inkscape:cx="1167.6418" inkscape:cy="498.19416" inkscape:document-units="mm" inkscape:current-layer="layer7" showgrid="false" inkscape:window-width="1920" inkscape:window-height="1020" inkscape:window-x="0" inkscape:window-y="0" inkscape:window-maximized="1" inkscape:snap-intersection-paths="true" inkscape:snap-smooth-nodes="false" inkscape:object-paths="false" inkscape:snap-object-midpoints="true" inkscape:object-nodes="true" inkscape:snap-center="true" showguides="false" units="in" inkscape:snap-midpoints="true" inkscape:snap-text-baseline="true" inkscape:measure-start="27.0871,895.384" inkscape:measure-end="27.0871,7.38431"/>
  <g id="_2937199244160">
   <g>
    <path class="fil0 str0" d="M427.5 26.11l210.89 0c-9.79,18.61 -15.46,40.63 -15.46,64.23 0,66.85 45.44,121.05 101.48,121.05 56.05,0 101.49,-54.2 101.49,-121.05 0,-23.6 -5.67,-45.62 -15.46,-64.23l209.81 0 0 483.32 287.05 0 0 693.2 -585.73 323.48 -581.1 -323.48 0 -693.2 287.03 0 0 -483.32z"/>
    <path class="fil1 str0" d="M199.2 573.06l218.2 0 0 709.9 -217.03 -123.34 -1.17 -586.56zm1039.65 0l-218.2 0 0 709.9 217.04 -123.34 1.16 -586.56zm-514.44 -177.47c85.25,0 154.36,69.1 154.36,154.35 0,85.25 -69.11,154.35 -154.36,154.35 -85.24,0 -154.35,-69.1 -154.35,-154.35 0,-85.25 69.11,-154.35 154.35,-154.35zm-242.7 -309.63l90.2 0c-1.21,7.8 -1.85,15.8 -1.85,23.95 0,85.24 69.11,154.35 154.35,154.35 85.25,0 154.36,-69.11 154.36,-154.35 0,-8.15 -0.64,-16.15 -1.86,-23.95l90.2 0c0,408.11 0,816.22 0,1224.34l-184.36 105.84c0,-141.58 0,-283.15 0,-424.72 -45.02,-80.52 -81.87,-78.18 -116.68,0l0 424.72c-61.46,-35.28 -122.91,-70.56 -184.36,-105.84l0 -1224.34z"/>
   </g>
   <rect class="fil2" x="-26.12" y="26.1" width="1500" height="1500"/>
  </g>
 </g>
</svg>
