<?xml version="1.0" encoding="UTF-8"?>
<!DOCTYPE svg PUBLIC "-//W3C//DTD SVG 1.1//EN" "http://www.w3.org/Graphics/SVG/1.1/DTD/svg11.dtd">
<!-- Creator: CorelDRAW 2019 (64-Bit) -->
<svg xmlns="http://www.w3.org/2000/svg" xml:space="preserve" width="15mm" height="15mm" version="1.1" style="shape-rendering:geometricPrecision; text-rendering:geometricPrecision; image-rendering:optimizeQuality; fill-rule:evenodd; clip-rule:evenodd"
viewBox="0 0 1500 1500"
 xmlns:xlink="http://www.w3.org/1999/xlink"
 xmlns:xodm="http://www.corel.com/coreldraw/odm/2003"
 sodipodi:role="line"
 xmlns:dc="http://purl.org/dc/elements/1.1/"
 xmlns:cc="http://creativecommons.org/ns#"
 xmlns:rdf="http://www.w3.org/1999/02/22-rdf-syntax-ns#"
 xmlns:svg="http://www.w3.org/2000/svg"
 xmlns:sodipodi="http://sodipodi.sourceforge.net/DTD/sodipodi-0.dtd"
 xmlns:inkscape="http://www.inkscape.org/namespaces/inkscape"
 inkscape:version="0.92.2 5c3e80d, 2017-08-06"
 sodipodi:docname="skyrim_quest_markers_v0.1.svg">
 <defs>
  <style type="text/css">
   <![CDATA[
    .fil2 {fill:none}
    .fil0 {fill:black}
    .fil1 {fill:white}
   ]]>
  </style>
 </defs>
 <g id="Слой_x0020_1">
  <metadata id="CorelCorpID_0Corel-Layer"/>
  <sodipodi:namedview id="base" pagecolor="#ffffff" bordercolor="#666666" borderopacity="1.0" inkscape:pageopacity="0.0" inkscape:pageshadow="2" inkscape:zoom="0.70710678" inkscape:cx="1167.6418" inkscape:cy="498.19416" inkscape:document-units="mm" inkscape:current-layer="layer7" showgrid="false" inkscape:window-width="1920" inkscape:window-height="1020" inkscape:window-x="0" inkscape:window-y="0" inkscape:window-maximized="1" inkscape:snap-intersection-paths="true" inkscape:snap-smooth-nodes="false" inkscape:object-paths="false" inkscape:snap-object-midpoints="true" inkscape:object-nodes="true" inkscape:snap-center="true" showguides="false" units="in" inkscape:snap-midpoints="true" inkscape:snap-text-baseline="true" inkscape:measure-start="27.0871,895.384" inkscape:measure-end="27.0871,7.38431"/>
  <sodipodi:namedview id="base" pagecolor="#ffffff" bordercolor="#666666" borderopacity="1.0" inkscape:pageopacity="0.0" inkscape:pageshadow="2" inkscape:zoom="0.70710678" inkscape:cx="1167.6418" inkscape:cy="498.19416" inkscape:document-units="mm" inkscape:current-layer="layer7" showgrid="false" inkscape:window-width="1920" inkscape:window-height="1020" inkscape:window-x="0" inkscape:window-y="0" inkscape:window-maximized="1" inkscape:snap-intersection-paths="true" inkscape:snap-smooth-nodes="false" inkscape:object-paths="false" inkscape:snap-object-midpoints="true" inkscape:object-nodes="true" inkscape:snap-center="true" showguides="false" units="in" inkscape:snap-midpoints="true" inkscape:snap-text-baseline="true" inkscape:measure-start="27.0871,895.384" inkscape:measure-end="27.0871,7.38431"/>
  <g id="_2937530600368">
   <g>
    <path class="fil0" d="M233.57 1344.08l5.78 -1.53 159.52 -120.13 131.83 130.94 105.64 -106.6 -86.75 -172.05 693.76 -624.48 98.84 -298.86c5.42,-15.11 5.5,-25.95 -7.6,-39.78 -13.83,-13.1 -24.67,-13.02 -39.78,-7.6l-298.86 98.84 -624.48 693.76 -172.05 -86.74 -106.6 105.63 130.94 131.83 -120.13 159.52 -1.53 5.78c-31.84,0.76 -63.45,13.28 -87.75,37.58 -50.16,50.16 -50.16,131.48 0,181.64 50.16,50.16 131.48,50.16 181.64,0 24.3,-24.3 36.83,-55.91 37.58,-87.75z"/>
    <path class="fil1" d="M153.34 1292.84c-25.52,-25.52 -66.89,-25.52 -92.41,0 -25.52,25.52 -25.52,66.89 0,92.41 25.52,25.52 66.89,25.52 92.41,0 25.52,-25.52 25.52,-66.89 0,-92.41zm42.65 -42.65c-7.83,-7.83 -16.42,-14.43 -25.53,-19.82l100.98 -134.57 75.89 75.88 -132.49 102.45c-5.2,-8.52 -11.48,-16.57 -18.85,-23.94zm293.14 -293.14l30.6 58.43 670.14 -604.74 68.04 -222.46 -222.47 68.03 -604.74 670.14 58.43 30.6zm-132.03 132.03l174.36 174.36 24.28 -24.28 -115.34 -233.38 -233.38 -115.34 -24.28 24.28 174.36 174.36z"/>
    <path class="fil0" d="M1219.89 1344.76l-5.78 -1.53 -159.52 -120.13 -131.83 130.94 -105.63 -106.6 86.74 -172.05 -693.76 -624.48 -98.84 -298.86c-5.42,-15.11 -5.5,-25.95 7.6,-39.78 13.84,-13.1 24.67,-13.02 39.78,-7.6l298.87 98.84 624.47 693.76 172.05 -86.74 106.61 105.63 -130.94 131.83 120.12 159.52 1.53 5.78c31.84,0.76 63.45,13.28 87.75,37.58 50.16,50.16 50.16,131.48 0,181.64 -50.16,50.16 -131.48,50.16 -181.64,0 -24.3,-24.3 -36.83,-55.91 -37.58,-87.75z"/>
    <path class="fil1" d="M1300.12 1293.52c25.52,-25.52 66.89,-25.52 92.41,0 25.52,25.52 25.52,66.89 0,92.41 -25.52,25.52 -66.89,25.52 -92.41,0 -25.52,-25.52 -25.52,-66.89 0,-92.41zm-42.65 -42.65c7.83,-7.83 16.42,-14.43 25.53,-19.82l-100.98 -134.57 -75.88 75.88 132.48 102.45c5.2,-8.52 11.48,-16.57 18.85,-23.94zm-293.14 -293.14l-30.6 58.43 -670.14 -604.74 -68.03 -222.46 222.46 68.03 604.74 670.14 -58.43 30.6zm132.03 132.03l-174.36 174.36 -24.28 -24.28 115.34 -233.38 233.38 -115.34 24.28 24.28 -174.36 174.36z"/>
   </g>
   <rect class="fil2" x="-28.96" y="26.1" width="1500" height="1500"/>
  </g>
 </g>
</svg>
