<?xml version="1.0" encoding="UTF-8"?>
<!DOCTYPE svg PUBLIC "-//W3C//DTD SVG 1.1//EN" "http://www.w3.org/Graphics/SVG/1.1/DTD/svg11.dtd">
<!-- Creator: CorelDRAW 2019 (64-Bit) -->
<svg xmlns="http://www.w3.org/2000/svg" xml:space="preserve" width="15mm" height="15mm" version="1.1" style="shape-rendering:geometricPrecision; text-rendering:geometricPrecision; image-rendering:optimizeQuality; fill-rule:evenodd; clip-rule:evenodd"
viewBox="0 0 1500 1500"
 xmlns:xlink="http://www.w3.org/1999/xlink"
 xmlns:xodm="http://www.corel.com/coreldraw/odm/2003"
 sodipodi:role="line"
 xmlns:dc="http://purl.org/dc/elements/1.1/"
 xmlns:cc="http://creativecommons.org/ns#"
 xmlns:rdf="http://www.w3.org/1999/02/22-rdf-syntax-ns#"
 xmlns:svg="http://www.w3.org/2000/svg"
 xmlns:sodipodi="http://sodipodi.sourceforge.net/DTD/sodipodi-0.dtd"
 xmlns:inkscape="http://www.inkscape.org/namespaces/inkscape"
 inkscape:version="0.92.2 5c3e80d, 2017-08-06"
 sodipodi:docname="skyrim_quest_markers_v0.1.svg">
 <defs>
  <style type="text/css">
   <![CDATA[
    .fil2 {fill:none}
    .fil0 {fill:black}
    .fil1 {fill:white}
   ]]>
  </style>
 </defs>
 <g id="Слой_x0020_1">
  <metadata id="CorelCorpID_0Corel-Layer"/>
  <sodipodi:namedview id="base" pagecolor="#ffffff" bordercolor="#666666" borderopacity="1.0" inkscape:pageopacity="0.0" inkscape:pageshadow="2" inkscape:zoom="0.70710678" inkscape:cx="1167.6418" inkscape:cy="498.19416" inkscape:document-units="mm" inkscape:current-layer="layer7" showgrid="false" inkscape:window-width="1920" inkscape:window-height="1020" inkscape:window-x="0" inkscape:window-y="0" inkscape:window-maximized="1" inkscape:snap-intersection-paths="true" inkscape:snap-smooth-nodes="false" inkscape:object-paths="false" inkscape:snap-object-midpoints="true" inkscape:object-nodes="true" inkscape:snap-center="true" showguides="false" units="in" inkscape:snap-midpoints="true" inkscape:snap-text-baseline="true" inkscape:measure-start="27.0871,895.384" inkscape:measure-end="27.0871,7.38431"/>
  <sodipodi:namedview id="base" pagecolor="#ffffff" bordercolor="#666666" borderopacity="1.0" inkscape:pageopacity="0.0" inkscape:pageshadow="2" inkscape:zoom="0.70710678" inkscape:cx="1167.6418" inkscape:cy="498.19416" inkscape:document-units="mm" inkscape:current-layer="layer7" showgrid="false" inkscape:window-width="1920" inkscape:window-height="1020" inkscape:window-x="0" inkscape:window-y="0" inkscape:window-maximized="1" inkscape:snap-intersection-paths="true" inkscape:snap-smooth-nodes="false" inkscape:object-paths="false" inkscape:snap-object-midpoints="true" inkscape:object-nodes="true" inkscape:snap-center="true" showguides="false" units="in" inkscape:snap-midpoints="true" inkscape:snap-text-baseline="true" inkscape:measure-start="27.0871,895.384" inkscape:measure-end="27.0871,7.38431"/>
  <g id="_2937535245232">
   <g>
    <path class="fil0" d="M375.7 364c-20.04,37.49 -0.52,145.69 0.6,214.06 20.02,177.21 11.26,171.64 16.9,257.46 18.72,120.01 3.17,119.02 7.93,188.69 3.29,75.79 25.19,77.54 22.56,191.83 -2.99,70.75 67.19,204.08 169.27,279.48 16.57,20.17 37.27,31.16 63.99,28.76 5.07,-2.9 9.04,-2.04 12.13,1.83 77.27,-0.56 90.65,-14.23 216.57,-8.02l87.57 -115.46c-2.86,-104.21 16.81,-153.27 24.95,-229.98 -5.5,-112.8 17.78,-154.51 26.67,-231.77 16.22,-100.41 -21.71,-149.2 33.43,-296.15 -13.21,-122.79 37.04,-231.2 18.75,-365.84l-180.94 -213.52 -196.27 -39.26c-63.54,52.82 -162.63,119.6 -195.08,200.98 -39.94,14.98 -84.02,88.09 -129.03,136.91z"/>
    <path class="fil1" d="M462.12 406.75c-8.56,30.35 5.53,132.91 6.37,192.9 14.88,155.5 23.61,155.27 12.56,225.92 19.43,80.34 9.13,104.23 12.68,165.35 -5.17,66.93 22.12,68.25 20.16,168.54 -4.76,106.5 63.24,196.45 115.76,245.24 26.57,21.74 38.31,30.35 47.6,25.23l9.02 1.61c55.43,2.25 32.87,-7.18 131.45,-8.28 30.97,4.75 50.99,-24.72 63.9,-76.37 4.22,-92.29 16.74,-108.69 22.79,-176 -4.09,-98.98 21.27,-185.08 27.88,-252.87 12.06,-88.1 -18.27,-159.69 32.9,-291.17 -9.82,-107.75 28.83,-198.65 19.03,-316.79l-137.98 -164.3 -115.06 -25.22c-43.46,31.54 -132.02,95.51 -156.16,166.92 -29.71,13.14 -82.81,73.49 -112.9,119.29zm120.52 183.79l141.73 -196.94 141.74 196.94 -141.74 196.94 -141.73 -196.94z"/>
   </g>
   <rect class="fil2" x="-26.12" y="26.1" width="1500" height="1500"/>
  </g>
 </g>
</svg>
