<?xml version="1.0" encoding="UTF-8"?>
<!DOCTYPE svg PUBLIC "-//W3C//DTD SVG 1.1//EN" "http://www.w3.org/Graphics/SVG/1.1/DTD/svg11.dtd">
<!-- Creator: CorelDRAW 2019 (64-Bit) -->
<svg xmlns="http://www.w3.org/2000/svg" xml:space="preserve" width="15mm" height="15mm" version="1.1" style="shape-rendering:geometricPrecision; text-rendering:geometricPrecision; image-rendering:optimizeQuality; fill-rule:evenodd; clip-rule:evenodd"
viewBox="0 0 1500 1500"
 xmlns:xlink="http://www.w3.org/1999/xlink"
 xmlns:xodm="http://www.corel.com/coreldraw/odm/2003"
 sodipodi:role="line"
 xmlns:dc="http://purl.org/dc/elements/1.1/"
 xmlns:cc="http://creativecommons.org/ns#"
 xmlns:rdf="http://www.w3.org/1999/02/22-rdf-syntax-ns#"
 xmlns:svg="http://www.w3.org/2000/svg"
 xmlns:sodipodi="http://sodipodi.sourceforge.net/DTD/sodipodi-0.dtd"
 xmlns:inkscape="http://www.inkscape.org/namespaces/inkscape"
 inkscape:version="0.92.2 5c3e80d, 2017-08-06"
 sodipodi:docname="skyrim_quest_markers_v0.1.svg">
 <defs>
  <style type="text/css">
   <![CDATA[
    .fil2 {fill:none}
    .fil0 {fill:black}
    .fil1 {fill:white}
   ]]>
  </style>
 </defs>
 <g id="Слой_x0020_1">
  <metadata id="CorelCorpID_0Corel-Layer"/>
  <sodipodi:namedview id="base" pagecolor="#ffffff" bordercolor="#666666" borderopacity="1.0" inkscape:pageopacity="0.0" inkscape:pageshadow="2" inkscape:zoom="0.70710678" inkscape:cx="1167.6418" inkscape:cy="498.19416" inkscape:document-units="mm" inkscape:current-layer="layer7" showgrid="false" inkscape:window-width="1920" inkscape:window-height="1020" inkscape:window-x="0" inkscape:window-y="0" inkscape:window-maximized="1" inkscape:snap-intersection-paths="true" inkscape:snap-smooth-nodes="false" inkscape:object-paths="false" inkscape:snap-object-midpoints="true" inkscape:object-nodes="true" inkscape:snap-center="true" showguides="false" units="in" inkscape:snap-midpoints="true" inkscape:snap-text-baseline="true" inkscape:measure-start="27.0871,895.384" inkscape:measure-end="27.0871,7.38431"/>
  <sodipodi:namedview id="base" pagecolor="#ffffff" bordercolor="#666666" borderopacity="1.0" inkscape:pageopacity="0.0" inkscape:pageshadow="2" inkscape:zoom="0.70710678" inkscape:cx="1167.6418" inkscape:cy="498.19416" inkscape:document-units="mm" inkscape:current-layer="layer7" showgrid="false" inkscape:window-width="1920" inkscape:window-height="1020" inkscape:window-x="0" inkscape:window-y="0" inkscape:window-maximized="1" inkscape:snap-intersection-paths="true" inkscape:snap-smooth-nodes="false" inkscape:object-paths="false" inkscape:snap-object-midpoints="true" inkscape:object-nodes="true" inkscape:snap-center="true" showguides="false" units="in" inkscape:snap-midpoints="true" inkscape:snap-text-baseline="true" inkscape:measure-start="27.0871,895.384" inkscape:measure-end="27.0871,7.38431"/>
  <g id="_2937235390112">
   <g>
    <path class="fil0" d="M739.26 879.6c5.6,-100 23.11,-126.19 63.96,-173.98 -2.74,-63.94 50.61,-126.61 70.61,-135.31 20.7,-94.43 68.98,-120.81 94.38,-133.53 34.59,-130.76 123.86,-113.85 105.51,-139.45l66.07 -89.78 151.78 -0.36c10.65,-12.06 36.95,-23.53 47.49,-34.98l71.29 63.41c-8.87,9.47 -17.5,49.93 -25.96,59.31 8.79,51.73 26.62,81.23 23.52,136.48l-40.96 52c-37.04,13.48 -24.85,39.39 -47.11,110.05 -62.01,-15.79 -4.34,63.67 -63.21,102.47 -2.41,24.44 -23.79,34.19 -19.4,58.61 61.82,-21.22 81.23,-19.22 162.3,-61.2l75.85 119.59c-113.72,86.7 -200.75,164.87 -227.17,287.24l-45.77 48.01c28.72,24.58 54.11,39.58 77.93,99.97 1.32,89.78 -178.53,171.3 -232.73,116.58 -211.7,-356.33 -511.02,-403.27 -713.76,-69.77 -20.1,41.19 -144.56,75.51 -191.84,40.98 -61.29,-21.11 -21.6,-132.28 57.1,-190.21l9.24 -13.24c-26.41,-122.36 -119.29,-225.18 -233,-311.88 7.06,-50.39 29.9,-85.65 74.11,-100.43 97.81,29.27 91.53,27.31 167.19,62.24l-5.82 -41.52c-52.31,-51.74 -38.43,-84.39 -50.37,-114.65l-5.46 -13.83c-71.06,-52.11 -12.81,-74.05 -84.1,-125.27l-42.71 -50.83c23.61,-47.12 33.67,-100.41 35,-154.3 -6.23,-7.06 -12.52,-13.86 -18.89,-20.66 -4.11,-48.06 26.74,-70.88 78.35,-78.7 8.49,9.23 36.72,36.54 44.87,45.97l125.31 -10.37 81.76 81.65 -7.24 19.25c39.76,20.86 61.15,15.91 108.09,111.49l-2.57 13.44c30.65,13.65 66.24,26.88 94.04,133.45 29.42,32.07 64.35,43.05 82.81,146.92 36.98,29.98 47.82,31.66 59.9,150.18l29.61 4.96z"/>
    <path class="fil1" d="M1024.24 823.47c29.45,2.75 46.74,32.67 69.36,62.21 -22.37,7.71 -45.66,14.87 -68.95,21.01l-7.44 41.59c39.97,-7.15 75.84,-9.32 104.98,-3.3 -33.24,28.07 -61.29,60.95 -83.69,99.08 -17.55,-12.44 -35.6,-23.81 -54.06,-34.08 7.48,-59.73 20.61,-122.25 39.8,-186.51zm-60.02 -21.47c-48.85,-30.81 -111.51,1.34 -180.41,61.75 2.93,-172.44 140.55,-90.61 139.42,-200.36 -24.28,27.2 -49.42,39.49 -75.24,39.61 25.75,-151.48 124.64,-60.3 169.54,-174.05 -26.12,17.31 -51.92,27.45 -77.28,26.95 23.84,-124.61 99.92,-38.5 148.14,-136.99 -20.71,9.53 -40.4,13.2 -58.01,4.91 32.47,-129.68 81.79,-4.51 156.64,-124.32 -7.78,-6.67 -32.7,20.92 -59.07,12.66l33 -62.51 152.05 2.72c9.64,-11.53 19.25,-22.77 28.79,-33.72l19.95 17.52c-8.03,9.05 -15.92,18.13 -23.58,27.1 1.33,51.12 10.43,102.06 31.8,147.1l-38.65 48.59c-19.57,0.16 -17.08,-29.86 -25.62,-44.79 -63.26,73.41 47.04,91.11 -50.48,164.53 -23.33,-15.18 6.16,-44.88 -19.49,-68.19 -42.27,71.79 44.91,111.66 -31.03,191 -26.63,-15.3 -4.5,-59.64 -23.29,-68.55 -65.96,95.42 59.83,92.75 -16.32,225.56 74.19,-30.74 147.56,-68.31 220.93,-108.44l32.91 40.51c-102.9,82.87 -184.81,174.8 -208.71,291.77l-29.2 13.99c-3.41,-43.7 -13.27,-79.67 -32.17,-104.78 -25.3,28.98 -44.57,60.8 -55.17,96.74 52.43,47.29 98.87,105.53 136.71,174.35 -34.53,34.77 -113.75,104.36 -162.79,52.06 -168.46,-336.17 -522.92,-406.92 -727.82,-104.98 -27.12,57.13 -86.16,103.25 -184.1,79.11 53.8,-92.3 118.6,-165.82 189.81,-221.2 -10.92,-23.82 -25.81,-45.76 -43.72,-66.27 -18.9,25.12 -28.76,61.08 -32.17,104.78l-29.21 -13.99c-23.9,-116.97 -111.61,-201.93 -214.51,-284.81l32.91 -40.5c88.52,27.97 156.34,75.6 224.81,108.99 -77.51,-133.79 48.29,-131.12 -17.67,-226.54 -18.8,8.91 3.33,53.24 -23.29,68.54 -75.95,-79.34 11.23,-119.2 -31.03,-191 -25.65,23.31 3.84,53.01 -19.49,68.2 -97.52,-73.42 12.78,-91.12 -50.49,-164.53 -8.53,14.93 -6.04,44.95 -25.61,44.79l-38.65 -48.59c21.37,-45.05 30.46,-95.98 31.67,-147.5 -5.63,-6.75 -11.33,-13.25 -17.09,-19.75l19.95 -17.51c7.68,8.82 15.36,17.72 22.73,26.74l151.75 -2.7 33 62.51c-26.37,8.26 -51.29,-19.34 -59.07,-12.67 74.85,119.81 124.16,-5.36 156.64,124.33 -17.61,8.28 -37.3,4.61 -58.01,-4.92 48.22,98.5 124.3,12.38 148.14,137 -25.36,0.49 -51.16,-9.65 -77.29,-26.95 44.91,113.74 143.8,22.57 169.55,174.04 -25.82,-0.12 -50.96,-12.4 -75.24,-39.61 -1.13,109.75 136.49,27.93 139.42,200.37 -68.9,-60.41 -131.56,-92.56 -178.6,-62.61 23.24,44.26 44.81,92.43 66.43,143.85 112.55,-32.82 229.65,-30.03 337.98,6.51 24.7,-58.54 49.74,-113.8 74.9,-165.85zm-541.12 37.9c-29.47,2.67 -46.76,32.59 -68.67,63.64 22.62,7.94 46.3,12.22 71.52,12.97l7.44 41.58c-39.97,-7.15 -75.84,-9.31 -104.98,-3.29 26.41,22.3 49.54,47.64 69.17,76.24 18.63,-11.77 37.6,-22.39 56.83,-31.89 -6.59,-52.59 -16.82,-105.62 -31.31,-159.25z"/>
   </g>
   <rect class="fil2" x="-27.61" y="26.1" width="1500" height="1500"/>
  </g>
 </g>
</svg>
